<svg width="64" height="64" viewBox="0 0 64 64" fill="none" xmlns="http://www.w3.org/2000/svg">
<g filter="url(#filter0_d_6_1223)">
<circle cx="32" cy="28" r="28" fill="#4894FF"/>
</g>
<path fill-rule="evenodd" clip-rule="evenodd" d="M32 18C29.8783 18 27.8434 18.8429 26.3431 20.3431C24.8429 21.8434 24 23.8783 24 26C24 29.0981 26.0157 32.1042 28.226 34.4373C29.3106 35.5822 30.3987 36.5195 31.2167 37.1708C31.5211 37.4133 31.787 37.6152 32 37.7726C32.213 37.6152 32.4789 37.4133 32.7833 37.1708C33.6013 36.5195 34.6894 35.5822 35.774 34.4373C37.9843 32.1042 40 29.0981 40 26C40 23.8783 39.1571 21.8434 37.6569 20.3431C36.1566 18.8429 34.1217 18 32 18ZM32 39C31.4453 39.8321 31.445 39.8319 31.4448 39.8317L31.4419 39.8298L31.4352 39.8253L31.4123 39.8098C31.3928 39.7966 31.3651 39.7776 31.3296 39.753C31.2585 39.7038 31.1565 39.6321 31.0278 39.5392C30.7705 39.3534 30.4064 39.0822 29.9708 38.7354C29.1013 38.043 27.9394 37.0428 26.774 35.8127C24.4843 33.3958 22 29.9019 22 26C22 23.3478 23.0536 20.8043 24.9289 18.9289C26.8043 17.0536 29.3478 16 32 16C34.6522 16 37.1957 17.0536 39.0711 18.9289C40.9464 20.8043 42 23.3478 42 26C42 29.9019 39.5157 33.3958 37.226 35.8127C36.0606 37.0428 34.8987 38.043 34.0292 38.7354C33.5936 39.0822 33.2295 39.3534 32.9722 39.5392C32.8435 39.6321 32.7415 39.7038 32.6704 39.753C32.6349 39.7776 32.6072 39.7966 32.5877 39.8098L32.5648 39.8253L32.5581 39.8298L32.556 39.8312C32.5557 39.8314 32.5547 39.8321 32 39ZM32 39L32.5547 39.8321C32.2188 40.056 31.7807 40.0556 31.4448 39.8317L32 39Z" fill="white"/>
<path fill-rule="evenodd" clip-rule="evenodd" d="M32 24C30.8954 24 30 24.8954 30 26C30 27.1046 30.8954 28 32 28C33.1046 28 34 27.1046 34 26C34 24.8954 33.1046 24 32 24ZM28 26C28 23.7909 29.7909 22 32 22C34.2091 22 36 23.7909 36 26C36 28.2091 34.2091 30 32 30C29.7909 30 28 28.2091 28 26Z" fill="white"/>
<defs>
<filter id="filter0_d_6_1223" x="0" y="0" width="64" height="64" filterUnits="userSpaceOnUse" color-interpolation-filters="sRGB">
<feFlood flood-opacity="0" result="BackgroundImageFix"/>
<feColorMatrix in="SourceAlpha" type="matrix" values="0 0 0 0 0 0 0 0 0 0 0 0 0 0 0 0 0 0 127 0" result="hardAlpha"/>
<feOffset dy="4"/>
<feGaussianBlur stdDeviation="2"/>
<feColorMatrix type="matrix" values="0 0 0 0 1 0 0 0 0 0.594833 0 0 0 0 0.220833 0 0 0 0.06 0"/>
<feBlend mode="normal" in2="BackgroundImageFix" result="effect1_dropShadow_6_1223"/>
<feBlend mode="normal" in="SourceGraphic" in2="effect1_dropShadow_6_1223" result="shape"/>
</filter>
</defs>
</svg>
